<mxfile host="app.diagrams.net" agent="Mozilla/5.0 (Windows NT 10.0; Win64; x64) AppleWebKit/537.36 (KHTML, like Gecko) Chrome/131.0.0.0 Safari/537.36" version="25.0.3">
  <diagram name="Page-1" id="13e1069c-82ec-6db2-03f1-153e76fe0fe0">
    <mxGraphModel dx="2402" dy="1531" grid="1" gridSize="10" guides="1" tooltips="1" connect="1" arrows="1" fold="1" page="1" pageScale="1" pageWidth="1100" pageHeight="850" background="none" math="0" shadow="0">
      <root>
        <mxCell id="0" />
        <mxCell id="1" parent="0" />
        <mxCell id="OHPu5Y8eQpiQ9gSJHc9i-10" value="LLM" style="shape=umlLifeline;perimeter=lifelinePerimeter;whiteSpace=wrap;html=1;container=1;collapsible=0;recursiveResize=0;outlineConnect=0;rounded=1;shadow=0;comic=0;labelBackgroundColor=none;strokeWidth=1;fontFamily=Verdana;fontSize=12;align=center;" vertex="1" parent="1">
          <mxGeometry x="640" y="-670" width="100" height="670" as="geometry" />
        </mxCell>
        <mxCell id="7baba1c4bc27f4b0-2" value="server" style="shape=umlLifeline;perimeter=lifelinePerimeter;whiteSpace=wrap;html=1;container=1;collapsible=0;recursiveResize=0;outlineConnect=0;rounded=1;shadow=0;comic=0;labelBackgroundColor=none;strokeWidth=1;fontFamily=Verdana;fontSize=12;align=center;" parent="1" vertex="1">
          <mxGeometry x="210" y="80" width="100" height="580" as="geometry" />
        </mxCell>
        <mxCell id="7baba1c4bc27f4b0-10" value="" style="html=1;points=[];perimeter=orthogonalPerimeter;rounded=0;shadow=0;comic=0;labelBackgroundColor=none;strokeWidth=1;fontFamily=Verdana;fontSize=12;align=center;" parent="7baba1c4bc27f4b0-2" vertex="1">
          <mxGeometry x="45" y="90" width="10" height="320" as="geometry" />
        </mxCell>
        <mxCell id="NWKQ1yAHhs1GwimdaiMp-5" value="update the promte" style="html=1;verticalAlign=bottom;endArrow=block;labelBackgroundColor=none;fontFamily=Verdana;fontSize=12;elbow=vertical;edgeStyle=orthogonalEdgeStyle;curved=1;exitX=1.066;exitY=0.713;exitPerimeter=0;" parent="7baba1c4bc27f4b0-2" edge="1">
          <mxGeometry relative="1" as="geometry">
            <mxPoint x="66.5" y="270.5" as="sourcePoint" />
            <mxPoint x="55" y="309.5" as="targetPoint" />
            <Array as="points">
              <mxPoint x="135.5" y="270.5" />
              <mxPoint x="135.5" y="309.5" />
            </Array>
          </mxGeometry>
        </mxCell>
        <mxCell id="7baba1c4bc27f4b0-3" value="embedding model" style="shape=umlLifeline;perimeter=lifelinePerimeter;whiteSpace=wrap;html=1;container=1;collapsible=0;recursiveResize=0;outlineConnect=0;rounded=1;shadow=0;comic=0;labelBackgroundColor=none;strokeWidth=1;fontFamily=Verdana;fontSize=12;align=center;" parent="1" vertex="1">
          <mxGeometry x="370" y="80" width="100" height="580" as="geometry" />
        </mxCell>
        <mxCell id="7baba1c4bc27f4b0-13" value="" style="html=1;points=[];perimeter=orthogonalPerimeter;rounded=0;shadow=0;comic=0;labelBackgroundColor=none;strokeWidth=1;fontFamily=Verdana;fontSize=12;align=center;" parent="7baba1c4bc27f4b0-3" vertex="1">
          <mxGeometry x="45" y="160" width="10" height="40" as="geometry" />
        </mxCell>
        <mxCell id="NWKQ1yAHhs1GwimdaiMp-4" value="return" style="html=1;verticalAlign=bottom;endArrow=open;dashed=1;endSize=8;labelBackgroundColor=none;fontFamily=Verdana;fontSize=12;" parent="7baba1c4bc27f4b0-3" edge="1">
          <mxGeometry relative="1" as="geometry">
            <mxPoint x="-95" y="240" as="targetPoint" />
            <mxPoint x="185" y="240" as="sourcePoint" />
          </mxGeometry>
        </mxCell>
        <mxCell id="7baba1c4bc27f4b0-4" value="vector DB" style="shape=umlLifeline;perimeter=lifelinePerimeter;whiteSpace=wrap;html=1;container=1;collapsible=0;recursiveResize=0;outlineConnect=0;rounded=1;shadow=0;comic=0;labelBackgroundColor=none;strokeWidth=1;fontFamily=Verdana;fontSize=12;align=center;" parent="1" vertex="1">
          <mxGeometry x="510" y="80" width="100" height="580" as="geometry" />
        </mxCell>
        <mxCell id="NWKQ1yAHhs1GwimdaiMp-1" value="" style="html=1;points=[];perimeter=orthogonalPerimeter;rounded=0;shadow=0;comic=0;labelBackgroundColor=none;strokeWidth=1;fontFamily=Verdana;fontSize=12;align=center;" parent="7baba1c4bc27f4b0-4" vertex="1">
          <mxGeometry x="45" y="180" width="10" height="60" as="geometry" />
        </mxCell>
        <mxCell id="7baba1c4bc27f4b0-30" value="return" style="html=1;verticalAlign=bottom;endArrow=open;dashed=1;endSize=8;labelBackgroundColor=none;fontFamily=Verdana;fontSize=12;edgeStyle=elbowEdgeStyle;elbow=vertical;" parent="7baba1c4bc27f4b0-4" target="7baba1c4bc27f4b0-2" edge="1">
          <mxGeometry relative="1" as="geometry">
            <mxPoint x="-230" y="360" as="targetPoint" />
            <Array as="points">
              <mxPoint x="73.5" y="360" />
            </Array>
            <mxPoint x="195" y="360" as="sourcePoint" />
          </mxGeometry>
        </mxCell>
        <mxCell id="7baba1c4bc27f4b0-5" value="LLM" style="shape=umlLifeline;perimeter=lifelinePerimeter;whiteSpace=wrap;html=1;container=1;collapsible=0;recursiveResize=0;outlineConnect=0;rounded=1;shadow=0;comic=0;labelBackgroundColor=none;strokeWidth=1;fontFamily=Verdana;fontSize=12;align=center;" parent="1" vertex="1">
          <mxGeometry x="650" y="80" width="100" height="580" as="geometry" />
        </mxCell>
        <mxCell id="7baba1c4bc27f4b0-19" value="" style="html=1;points=[];perimeter=orthogonalPerimeter;rounded=0;shadow=0;comic=0;labelBackgroundColor=none;strokeWidth=1;fontFamily=Verdana;fontSize=12;align=center;" parent="7baba1c4bc27f4b0-5" vertex="1">
          <mxGeometry x="45" y="320" width="10" height="40" as="geometry" />
        </mxCell>
        <mxCell id="7baba1c4bc27f4b0-6" value="relational DB" style="shape=umlLifeline;perimeter=lifelinePerimeter;whiteSpace=wrap;html=1;container=1;collapsible=0;recursiveResize=0;outlineConnect=0;rounded=1;shadow=0;comic=0;labelBackgroundColor=none;strokeWidth=1;fontFamily=Verdana;fontSize=12;align=center;" parent="1" vertex="1">
          <mxGeometry x="790" y="80" width="100" height="580" as="geometry" />
        </mxCell>
        <mxCell id="NWKQ1yAHhs1GwimdaiMp-7" value="" style="html=1;points=[];perimeter=orthogonalPerimeter;rounded=0;shadow=0;comic=0;labelBackgroundColor=none;strokeWidth=1;fontFamily=Verdana;fontSize=12;align=center;" parent="7baba1c4bc27f4b0-6" vertex="1">
          <mxGeometry x="45" y="100" width="10" height="40" as="geometry" />
        </mxCell>
        <mxCell id="7baba1c4bc27f4b0-8" value="User Interface" style="shape=umlLifeline;perimeter=lifelinePerimeter;whiteSpace=wrap;html=1;container=1;collapsible=0;recursiveResize=0;outlineConnect=0;rounded=1;shadow=0;comic=0;labelBackgroundColor=none;strokeWidth=1;fontFamily=Verdana;fontSize=12;align=center;" parent="1" vertex="1">
          <mxGeometry x="70" y="80" width="100" height="580" as="geometry" />
        </mxCell>
        <mxCell id="7baba1c4bc27f4b0-9" value="" style="html=1;points=[];perimeter=orthogonalPerimeter;rounded=0;shadow=0;comic=0;labelBackgroundColor=none;strokeWidth=1;fontFamily=Verdana;fontSize=12;align=center;" parent="7baba1c4bc27f4b0-8" vertex="1">
          <mxGeometry x="45" y="90" width="10" height="450" as="geometry" />
        </mxCell>
        <mxCell id="7baba1c4bc27f4b0-11" value="ask question" style="html=1;verticalAlign=bottom;endArrow=block;entryX=0;entryY=0;labelBackgroundColor=none;fontFamily=Verdana;fontSize=12;edgeStyle=elbowEdgeStyle;elbow=vertical;" parent="1" source="7baba1c4bc27f4b0-9" target="7baba1c4bc27f4b0-10" edge="1">
          <mxGeometry relative="1" as="geometry">
            <mxPoint x="190" y="190" as="sourcePoint" />
          </mxGeometry>
        </mxCell>
        <mxCell id="7baba1c4bc27f4b0-14" value="embed the question" style="html=1;verticalAlign=bottom;endArrow=block;entryX=0;entryY=0;labelBackgroundColor=none;fontFamily=Verdana;fontSize=12;edgeStyle=elbowEdgeStyle;elbow=vertical;" parent="1" source="7baba1c4bc27f4b0-10" target="7baba1c4bc27f4b0-13" edge="1">
          <mxGeometry relative="1" as="geometry">
            <mxPoint x="340" y="200" as="sourcePoint" />
          </mxGeometry>
        </mxCell>
        <mxCell id="NWKQ1yAHhs1GwimdaiMp-2" value="quary" style="html=1;verticalAlign=bottom;endArrow=block;labelBackgroundColor=none;fontFamily=Verdana;fontSize=12;edgeStyle=elbowEdgeStyle;elbow=vertical;exitX=1;exitY=0.519;exitDx=0;exitDy=0;exitPerimeter=0;" parent="1" source="7baba1c4bc27f4b0-13" target="7baba1c4bc27f4b0-4" edge="1">
          <mxGeometry relative="1" as="geometry">
            <mxPoint x="450" y="219.5" as="sourcePoint" />
            <mxPoint x="520.5" y="219.5" as="targetPoint" />
          </mxGeometry>
        </mxCell>
        <mxCell id="NWKQ1yAHhs1GwimdaiMp-6" value="get the session" style="html=1;verticalAlign=bottom;endArrow=block;entryX=0.689;entryY=-0.047;labelBackgroundColor=none;fontFamily=Verdana;fontSize=12;edgeStyle=elbowEdgeStyle;elbow=horizontal;entryDx=0;entryDy=0;entryPerimeter=0;exitX=0.822;exitY=0.025;exitDx=0;exitDy=0;exitPerimeter=0;" parent="1" source="7baba1c4bc27f4b0-10" target="NWKQ1yAHhs1GwimdaiMp-7" edge="1">
          <mxGeometry relative="1" as="geometry">
            <mxPoint x="280" y="180" as="sourcePoint" />
            <mxPoint x="410" y="180" as="targetPoint" />
          </mxGeometry>
        </mxCell>
        <mxCell id="NWKQ1yAHhs1GwimdaiMp-8" value="return" style="html=1;verticalAlign=bottom;endArrow=open;dashed=1;endSize=8;labelBackgroundColor=none;fontFamily=Verdana;fontSize=12;exitX=0.511;exitY=0.975;exitDx=0;exitDy=0;exitPerimeter=0;" parent="1" source="NWKQ1yAHhs1GwimdaiMp-7" target="7baba1c4bc27f4b0-2" edge="1">
          <mxGeometry relative="1" as="geometry">
            <mxPoint x="310" y="210" as="targetPoint" />
            <mxPoint x="590" y="210" as="sourcePoint" />
          </mxGeometry>
        </mxCell>
        <mxCell id="NWKQ1yAHhs1GwimdaiMp-9" value="ask the LLM" style="html=1;verticalAlign=bottom;endArrow=block;labelBackgroundColor=none;fontFamily=Verdana;fontSize=12;edgeStyle=elbowEdgeStyle;elbow=vertical;" parent="1" target="7baba1c4bc27f4b0-5" edge="1">
          <mxGeometry relative="1" as="geometry">
            <mxPoint x="270" y="410" as="sourcePoint" />
            <mxPoint x="540" y="410" as="targetPoint" />
          </mxGeometry>
        </mxCell>
        <mxCell id="NWKQ1yAHhs1GwimdaiMp-14" value="return" style="html=1;verticalAlign=bottom;endArrow=open;dashed=1;endSize=8;labelBackgroundColor=none;fontFamily=Verdana;fontSize=12;" parent="1" edge="1">
          <mxGeometry relative="1" as="geometry">
            <mxPoint x="130" y="480" as="targetPoint" />
            <mxPoint x="260" y="480" as="sourcePoint" />
          </mxGeometry>
        </mxCell>
        <mxCell id="DOSWLQs21BXkEZgYf4Mx-1" value="server" style="shape=umlLifeline;perimeter=lifelinePerimeter;whiteSpace=wrap;html=1;container=1;collapsible=0;recursiveResize=0;outlineConnect=0;rounded=1;shadow=0;comic=0;labelBackgroundColor=none;strokeWidth=1;fontFamily=Verdana;fontSize=12;align=center;" parent="1" vertex="1">
          <mxGeometry x="210" y="830" width="100" height="580" as="geometry" />
        </mxCell>
        <mxCell id="DOSWLQs21BXkEZgYf4Mx-2" value="" style="html=1;points=[];perimeter=orthogonalPerimeter;rounded=0;shadow=0;comic=0;labelBackgroundColor=none;strokeWidth=1;fontFamily=Verdana;fontSize=12;align=center;" parent="DOSWLQs21BXkEZgYf4Mx-1" vertex="1">
          <mxGeometry x="45" y="90" width="10" height="160" as="geometry" />
        </mxCell>
        <mxCell id="DOSWLQs21BXkEZgYf4Mx-4" value="embedding model" style="shape=umlLifeline;perimeter=lifelinePerimeter;whiteSpace=wrap;html=1;container=1;collapsible=0;recursiveResize=0;outlineConnect=0;rounded=1;shadow=0;comic=0;labelBackgroundColor=none;strokeWidth=1;fontFamily=Verdana;fontSize=12;align=center;" parent="1" vertex="1">
          <mxGeometry x="370" y="830" width="100" height="580" as="geometry" />
        </mxCell>
        <mxCell id="DOSWLQs21BXkEZgYf4Mx-5" value="" style="html=1;points=[];perimeter=orthogonalPerimeter;rounded=0;shadow=0;comic=0;labelBackgroundColor=none;strokeWidth=1;fontFamily=Verdana;fontSize=12;align=center;" parent="DOSWLQs21BXkEZgYf4Mx-4" vertex="1">
          <mxGeometry x="45" y="160" width="10" height="40" as="geometry" />
        </mxCell>
        <mxCell id="DOSWLQs21BXkEZgYf4Mx-6" value="return" style="html=1;verticalAlign=bottom;endArrow=open;dashed=1;endSize=8;labelBackgroundColor=none;fontFamily=Verdana;fontSize=12;" parent="DOSWLQs21BXkEZgYf4Mx-4" edge="1">
          <mxGeometry relative="1" as="geometry">
            <mxPoint x="-95" y="240" as="targetPoint" />
            <mxPoint x="185" y="240" as="sourcePoint" />
          </mxGeometry>
        </mxCell>
        <mxCell id="DOSWLQs21BXkEZgYf4Mx-7" value="vector DB" style="shape=umlLifeline;perimeter=lifelinePerimeter;whiteSpace=wrap;html=1;container=1;collapsible=0;recursiveResize=0;outlineConnect=0;rounded=1;shadow=0;comic=0;labelBackgroundColor=none;strokeWidth=1;fontFamily=Verdana;fontSize=12;align=center;" parent="1" vertex="1">
          <mxGeometry x="510" y="830" width="100" height="580" as="geometry" />
        </mxCell>
        <mxCell id="DOSWLQs21BXkEZgYf4Mx-8" value="" style="html=1;points=[];perimeter=orthogonalPerimeter;rounded=0;shadow=0;comic=0;labelBackgroundColor=none;strokeWidth=1;fontFamily=Verdana;fontSize=12;align=center;" parent="DOSWLQs21BXkEZgYf4Mx-7" vertex="1">
          <mxGeometry x="45" y="180" width="10" height="60" as="geometry" />
        </mxCell>
        <mxCell id="DOSWLQs21BXkEZgYf4Mx-10" value="LLM" style="shape=umlLifeline;perimeter=lifelinePerimeter;whiteSpace=wrap;html=1;container=1;collapsible=0;recursiveResize=0;outlineConnect=0;rounded=1;shadow=0;comic=0;labelBackgroundColor=none;strokeWidth=1;fontFamily=Verdana;fontSize=12;align=center;" parent="1" vertex="1">
          <mxGeometry x="650" y="830" width="100" height="580" as="geometry" />
        </mxCell>
        <mxCell id="DOSWLQs21BXkEZgYf4Mx-12" value="relational DB" style="shape=umlLifeline;perimeter=lifelinePerimeter;whiteSpace=wrap;html=1;container=1;collapsible=0;recursiveResize=0;outlineConnect=0;rounded=1;shadow=0;comic=0;labelBackgroundColor=none;strokeWidth=1;fontFamily=Verdana;fontSize=12;align=center;" parent="1" vertex="1">
          <mxGeometry x="790" y="830" width="100" height="580" as="geometry" />
        </mxCell>
        <mxCell id="DOSWLQs21BXkEZgYf4Mx-15" value="User Interface" style="shape=umlLifeline;perimeter=lifelinePerimeter;whiteSpace=wrap;html=1;container=1;collapsible=0;recursiveResize=0;outlineConnect=0;rounded=1;shadow=0;comic=0;labelBackgroundColor=none;strokeWidth=1;fontFamily=Verdana;fontSize=12;align=center;" parent="1" vertex="1">
          <mxGeometry x="70" y="830" width="100" height="580" as="geometry" />
        </mxCell>
        <mxCell id="DOSWLQs21BXkEZgYf4Mx-16" value="" style="html=1;points=[];perimeter=orthogonalPerimeter;rounded=0;shadow=0;comic=0;labelBackgroundColor=none;strokeWidth=1;fontFamily=Verdana;fontSize=12;align=center;" parent="DOSWLQs21BXkEZgYf4Mx-15" vertex="1">
          <mxGeometry x="45" y="90" width="10" height="160" as="geometry" />
        </mxCell>
        <mxCell id="DOSWLQs21BXkEZgYf4Mx-17" value="add doc" style="html=1;verticalAlign=bottom;endArrow=block;entryX=0;entryY=0;labelBackgroundColor=none;fontFamily=Verdana;fontSize=12;edgeStyle=elbowEdgeStyle;elbow=vertical;" parent="1" source="DOSWLQs21BXkEZgYf4Mx-16" target="DOSWLQs21BXkEZgYf4Mx-2" edge="1">
          <mxGeometry relative="1" as="geometry">
            <mxPoint x="190" y="940" as="sourcePoint" />
          </mxGeometry>
        </mxCell>
        <mxCell id="DOSWLQs21BXkEZgYf4Mx-18" value="embed the doc" style="html=1;verticalAlign=bottom;endArrow=block;entryX=0;entryY=0;labelBackgroundColor=none;fontFamily=Verdana;fontSize=12;edgeStyle=elbowEdgeStyle;elbow=vertical;" parent="1" source="DOSWLQs21BXkEZgYf4Mx-2" target="DOSWLQs21BXkEZgYf4Mx-5" edge="1">
          <mxGeometry relative="1" as="geometry">
            <mxPoint x="340" y="950" as="sourcePoint" />
          </mxGeometry>
        </mxCell>
        <mxCell id="DOSWLQs21BXkEZgYf4Mx-19" value="save" style="html=1;verticalAlign=bottom;endArrow=block;labelBackgroundColor=none;fontFamily=Verdana;fontSize=12;edgeStyle=elbowEdgeStyle;elbow=vertical;exitX=1;exitY=0.519;exitDx=0;exitDy=0;exitPerimeter=0;" parent="1" source="DOSWLQs21BXkEZgYf4Mx-5" target="DOSWLQs21BXkEZgYf4Mx-7" edge="1">
          <mxGeometry relative="1" as="geometry">
            <mxPoint x="450" y="969.5" as="sourcePoint" />
            <mxPoint x="520.5" y="969.5" as="targetPoint" />
          </mxGeometry>
        </mxCell>
        <mxCell id="DOSWLQs21BXkEZgYf4Mx-23" value="return" style="html=1;verticalAlign=bottom;endArrow=open;dashed=1;endSize=8;labelBackgroundColor=none;fontFamily=Verdana;fontSize=12;" parent="1" edge="1">
          <mxGeometry relative="1" as="geometry">
            <mxPoint x="130" y="1080" as="targetPoint" />
            <mxPoint x="260" y="1080" as="sourcePoint" />
          </mxGeometry>
        </mxCell>
        <mxCell id="VPZHpu9POK-sh68UXKVB-1" value="cache" style="shape=umlLifeline;perimeter=lifelinePerimeter;whiteSpace=wrap;html=1;container=1;collapsible=0;recursiveResize=0;outlineConnect=0;rounded=1;shadow=0;comic=0;labelBackgroundColor=none;strokeWidth=1;fontFamily=Verdana;fontSize=12;align=center;" parent="1" vertex="1">
          <mxGeometry x="930" y="80" width="100" height="580" as="geometry" />
        </mxCell>
        <mxCell id="VPZHpu9POK-sh68UXKVB-2" value="" style="html=1;points=[];perimeter=orthogonalPerimeter;rounded=0;shadow=0;comic=0;labelBackgroundColor=none;strokeWidth=1;fontFamily=Verdana;fontSize=12;align=center;" parent="VPZHpu9POK-sh68UXKVB-1" vertex="1">
          <mxGeometry x="45" y="100" width="10" height="40" as="geometry" />
        </mxCell>
        <mxCell id="OHPu5Y8eQpiQ9gSJHc9i-1" value="server" style="shape=umlLifeline;perimeter=lifelinePerimeter;whiteSpace=wrap;html=1;container=1;collapsible=0;recursiveResize=0;outlineConnect=0;rounded=1;shadow=0;comic=0;labelBackgroundColor=none;strokeWidth=1;fontFamily=Verdana;fontSize=12;align=center;" vertex="1" parent="1">
          <mxGeometry x="200" y="-670" width="100" height="670" as="geometry" />
        </mxCell>
        <mxCell id="OHPu5Y8eQpiQ9gSJHc9i-2" value="" style="html=1;points=[];perimeter=orthogonalPerimeter;rounded=0;shadow=0;comic=0;labelBackgroundColor=none;strokeWidth=1;fontFamily=Verdana;fontSize=12;align=center;" vertex="1" parent="OHPu5Y8eQpiQ9gSJHc9i-1">
          <mxGeometry x="45" y="90" width="10" height="480" as="geometry" />
        </mxCell>
        <mxCell id="OHPu5Y8eQpiQ9gSJHc9i-4" value="embedding model" style="shape=umlLifeline;perimeter=lifelinePerimeter;whiteSpace=wrap;html=1;container=1;collapsible=0;recursiveResize=0;outlineConnect=0;rounded=1;shadow=0;comic=0;labelBackgroundColor=none;strokeWidth=1;fontFamily=Verdana;fontSize=12;align=center;" vertex="1" parent="1">
          <mxGeometry x="360" y="-670" width="100" height="670" as="geometry" />
        </mxCell>
        <mxCell id="OHPu5Y8eQpiQ9gSJHc9i-7" value="vector DB" style="shape=umlLifeline;perimeter=lifelinePerimeter;whiteSpace=wrap;html=1;container=1;collapsible=0;recursiveResize=0;outlineConnect=0;rounded=1;shadow=0;comic=0;labelBackgroundColor=none;strokeWidth=1;fontFamily=Verdana;fontSize=12;align=center;" vertex="1" parent="1">
          <mxGeometry x="500" y="-670" width="120" height="670" as="geometry" />
        </mxCell>
        <mxCell id="OHPu5Y8eQpiQ9gSJHc9i-5" value="" style="html=1;points=[];perimeter=orthogonalPerimeter;rounded=0;shadow=0;comic=0;labelBackgroundColor=none;strokeWidth=1;fontFamily=Verdana;fontSize=12;align=center;" vertex="1" parent="OHPu5Y8eQpiQ9gSJHc9i-7">
          <mxGeometry x="-95" y="310.16999999999996" width="10" height="40" as="geometry" />
        </mxCell>
        <mxCell id="OHPu5Y8eQpiQ9gSJHc9i-6" value="return" style="html=1;verticalAlign=bottom;endArrow=open;dashed=1;endSize=8;labelBackgroundColor=none;fontFamily=Verdana;fontSize=12;" edge="1" parent="OHPu5Y8eQpiQ9gSJHc9i-7">
          <mxGeometry relative="1" as="geometry">
            <mxPoint x="-240" y="392" as="targetPoint" />
            <mxPoint x="40" y="392" as="sourcePoint" />
          </mxGeometry>
        </mxCell>
        <mxCell id="OHPu5Y8eQpiQ9gSJHc9i-8" value="" style="html=1;points=[];perimeter=orthogonalPerimeter;rounded=0;shadow=0;comic=0;labelBackgroundColor=none;strokeWidth=1;fontFamily=Verdana;fontSize=12;align=center;" vertex="1" parent="OHPu5Y8eQpiQ9gSJHc9i-7">
          <mxGeometry x="45" y="330.16999999999996" width="10" height="60" as="geometry" />
        </mxCell>
        <mxCell id="OHPu5Y8eQpiQ9gSJHc9i-17" value="embed the question" style="html=1;verticalAlign=bottom;endArrow=block;entryX=0;entryY=0;labelBackgroundColor=none;fontFamily=Verdana;fontSize=12;edgeStyle=elbowEdgeStyle;elbow=vertical;" edge="1" parent="OHPu5Y8eQpiQ9gSJHc9i-7" target="OHPu5Y8eQpiQ9gSJHc9i-5">
          <mxGeometry relative="1" as="geometry">
            <mxPoint x="-245" y="310.00333333333333" as="sourcePoint" />
            <Array as="points">
              <mxPoint x="-235" y="310" />
            </Array>
          </mxGeometry>
        </mxCell>
        <mxCell id="OHPu5Y8eQpiQ9gSJHc9i-18" value="quary" style="html=1;verticalAlign=bottom;endArrow=block;labelBackgroundColor=none;fontFamily=Verdana;fontSize=12;edgeStyle=elbowEdgeStyle;elbow=vertical;exitX=1;exitY=0.519;exitDx=0;exitDy=0;exitPerimeter=0;" edge="1" parent="OHPu5Y8eQpiQ9gSJHc9i-7" source="OHPu5Y8eQpiQ9gSJHc9i-5">
          <mxGeometry relative="1" as="geometry">
            <mxPoint x="-60" y="289.66999999999996" as="sourcePoint" />
            <mxPoint x="49.50000000000023" y="330.8366666666667" as="targetPoint" />
          </mxGeometry>
        </mxCell>
        <mxCell id="OHPu5Y8eQpiQ9gSJHc9i-9" value="return" style="html=1;verticalAlign=bottom;endArrow=open;dashed=1;endSize=8;labelBackgroundColor=none;fontFamily=Verdana;fontSize=12;edgeStyle=elbowEdgeStyle;elbow=vertical;" edge="1" parent="OHPu5Y8eQpiQ9gSJHc9i-7">
          <mxGeometry relative="1" as="geometry">
            <mxPoint x="-240" y="530" as="targetPoint" />
            <Array as="points">
              <mxPoint x="73.5" y="530" />
            </Array>
            <mxPoint x="195" y="530" as="sourcePoint" />
          </mxGeometry>
        </mxCell>
        <mxCell id="OHPu5Y8eQpiQ9gSJHc9i-21" value="ask the LLM" style="html=1;verticalAlign=bottom;endArrow=block;labelBackgroundColor=none;fontFamily=Verdana;fontSize=12;edgeStyle=elbowEdgeStyle;elbow=vertical;" edge="1" parent="OHPu5Y8eQpiQ9gSJHc9i-7">
          <mxGeometry relative="1" as="geometry">
            <mxPoint x="-240" y="500" as="sourcePoint" />
            <mxPoint x="189.50000000000023" y="499.8333333333335" as="targetPoint" />
          </mxGeometry>
        </mxCell>
        <mxCell id="OHPu5Y8eQpiQ9gSJHc9i-11" value="" style="html=1;points=[];perimeter=orthogonalPerimeter;rounded=0;shadow=0;comic=0;labelBackgroundColor=none;strokeWidth=1;fontFamily=Verdana;fontSize=12;align=center;" vertex="1" parent="OHPu5Y8eQpiQ9gSJHc9i-7">
          <mxGeometry x="185" y="490" width="10" height="40" as="geometry" />
        </mxCell>
        <mxCell id="OHPu5Y8eQpiQ9gSJHc9i-12" value="relational DB" style="shape=umlLifeline;perimeter=lifelinePerimeter;whiteSpace=wrap;html=1;container=1;collapsible=0;recursiveResize=0;outlineConnect=0;rounded=1;shadow=0;comic=0;labelBackgroundColor=none;strokeWidth=1;fontFamily=Verdana;fontSize=12;align=center;" vertex="1" parent="1">
          <mxGeometry x="780" y="-670" width="100" height="670" as="geometry" />
        </mxCell>
        <mxCell id="OHPu5Y8eQpiQ9gSJHc9i-30" value="" style="html=1;verticalAlign=bottom;endArrow=open;dashed=1;endSize=8;labelBackgroundColor=none;fontFamily=Verdana;fontSize=12;" edge="1" parent="OHPu5Y8eQpiQ9gSJHc9i-12">
          <mxGeometry relative="1" as="geometry">
            <mxPoint x="-527" y="150" as="targetPoint" />
            <mxPoint x="185" y="150" as="sourcePoint" />
          </mxGeometry>
        </mxCell>
        <mxCell id="OHPu5Y8eQpiQ9gSJHc9i-36" value="return {session : logs}" style="edgeLabel;html=1;align=center;verticalAlign=middle;resizable=0;points=[];fontSize=12;" vertex="1" connectable="0" parent="OHPu5Y8eQpiQ9gSJHc9i-30">
          <mxGeometry x="0.0033" y="-3" relative="1" as="geometry">
            <mxPoint x="-6" y="-7" as="offset" />
          </mxGeometry>
        </mxCell>
        <mxCell id="OHPu5Y8eQpiQ9gSJHc9i-14" value="User Interface" style="shape=umlLifeline;perimeter=lifelinePerimeter;whiteSpace=wrap;html=1;container=1;collapsible=0;recursiveResize=0;outlineConnect=0;rounded=1;shadow=0;comic=0;labelBackgroundColor=none;strokeWidth=1;fontFamily=Verdana;fontSize=12;align=center;" vertex="1" parent="1">
          <mxGeometry x="60" y="-670" width="100" height="670" as="geometry" />
        </mxCell>
        <mxCell id="OHPu5Y8eQpiQ9gSJHc9i-15" value="" style="html=1;points=[];perimeter=orthogonalPerimeter;rounded=0;shadow=0;comic=0;labelBackgroundColor=none;strokeWidth=1;fontFamily=Verdana;fontSize=12;align=center;" vertex="1" parent="OHPu5Y8eQpiQ9gSJHc9i-14">
          <mxGeometry x="45" y="80" width="10" height="480" as="geometry" />
        </mxCell>
        <mxCell id="OHPu5Y8eQpiQ9gSJHc9i-16" value="ask question" style="html=1;verticalAlign=bottom;endArrow=block;entryX=0;entryY=0;labelBackgroundColor=none;fontFamily=Verdana;fontSize=12;edgeStyle=elbowEdgeStyle;elbow=vertical;" edge="1" parent="1" source="OHPu5Y8eQpiQ9gSJHc9i-15" target="OHPu5Y8eQpiQ9gSJHc9i-2">
          <mxGeometry relative="1" as="geometry">
            <mxPoint x="180" y="-560" as="sourcePoint" />
          </mxGeometry>
        </mxCell>
        <mxCell id="OHPu5Y8eQpiQ9gSJHc9i-22" value="return" style="html=1;verticalAlign=bottom;endArrow=open;dashed=1;endSize=8;labelBackgroundColor=none;fontFamily=Verdana;fontSize=12;" edge="1" parent="1">
          <mxGeometry relative="1" as="geometry">
            <mxPoint x="120" y="-120" as="targetPoint" />
            <mxPoint x="250" y="-120" as="sourcePoint" />
          </mxGeometry>
        </mxCell>
        <mxCell id="OHPu5Y8eQpiQ9gSJHc9i-23" value="cache" style="shape=umlLifeline;perimeter=lifelinePerimeter;whiteSpace=wrap;html=1;container=1;collapsible=0;recursiveResize=0;outlineConnect=0;rounded=1;shadow=0;comic=0;labelBackgroundColor=none;strokeWidth=1;fontFamily=Verdana;fontSize=12;align=center;" vertex="1" parent="1">
          <mxGeometry x="920" y="-670" width="100" height="670" as="geometry" />
        </mxCell>
        <mxCell id="OHPu5Y8eQpiQ9gSJHc9i-24" value="" style="html=1;points=[];perimeter=orthogonalPerimeter;rounded=0;shadow=0;comic=0;labelBackgroundColor=none;strokeWidth=1;fontFamily=Verdana;fontSize=12;align=center;" vertex="1" parent="OHPu5Y8eQpiQ9gSJHc9i-23">
          <mxGeometry x="45" y="110" width="10" height="40" as="geometry" />
        </mxCell>
        <mxCell id="OHPu5Y8eQpiQ9gSJHc9i-41" value="" style="html=1;points=[];perimeter=orthogonalPerimeter;rounded=0;shadow=0;comic=0;labelBackgroundColor=none;strokeWidth=1;fontFamily=Verdana;fontSize=12;align=center;" vertex="1" parent="OHPu5Y8eQpiQ9gSJHc9i-23">
          <mxGeometry x="45" y="200" width="10" height="40" as="geometry" />
        </mxCell>
        <mxCell id="OHPu5Y8eQpiQ9gSJHc9i-28" value="get the user session" style="html=1;verticalAlign=bottom;endArrow=block;labelBackgroundColor=none;fontFamily=Verdana;fontSize=12;edgeStyle=elbowEdgeStyle;elbow=vertical;exitX=1.278;exitY=0.059;exitDx=0;exitDy=0;exitPerimeter=0;" edge="1" parent="1">
          <mxGeometry relative="1" as="geometry">
            <mxPoint x="257.7800000000002" y="-560" as="sourcePoint" />
            <mxPoint x="969.5" y="-559.7033333333333" as="targetPoint" />
            <Array as="points" />
          </mxGeometry>
        </mxCell>
        <mxCell id="OHPu5Y8eQpiQ9gSJHc9i-32" value="create a new session" style="html=1;verticalAlign=bottom;endArrow=block;labelBackgroundColor=none;fontFamily=Verdana;fontSize=12;edgeStyle=elbowEdgeStyle;elbow=vertical;" edge="1" parent="1" source="OHPu5Y8eQpiQ9gSJHc9i-2">
          <mxGeometry relative="1" as="geometry">
            <mxPoint x="259" y="-469.83" as="sourcePoint" />
            <mxPoint x="971" y="-469.83" as="targetPoint" />
          </mxGeometry>
        </mxCell>
        <mxCell id="OHPu5Y8eQpiQ9gSJHc9i-44" value="" style="group" vertex="1" connectable="0" parent="1">
          <mxGeometry x="-90" y="-540" width="1145" height="150" as="geometry" />
        </mxCell>
        <mxCell id="OHPu5Y8eQpiQ9gSJHc9i-31" value="[user has a session]" style="text;html=1;align=center;verticalAlign=middle;resizable=0;points=[];autosize=1;strokeColor=none;fillColor=none;" vertex="1" parent="OHPu5Y8eQpiQ9gSJHc9i-44">
          <mxGeometry x="52.16683549671368" y="19.99857142857138" width="130" height="30" as="geometry" />
        </mxCell>
        <mxCell id="OHPu5Y8eQpiQ9gSJHc9i-46" value="" style="group" vertex="1" connectable="0" parent="OHPu5Y8eQpiQ9gSJHc9i-44">
          <mxGeometry width="1145" height="150" as="geometry" />
        </mxCell>
        <mxCell id="OHPu5Y8eQpiQ9gSJHc9i-25" value="condition" style="shape=umlFrame;whiteSpace=wrap;html=1;pointerEvents=0;strokeWidth=2;" vertex="1" parent="OHPu5Y8eQpiQ9gSJHc9i-46">
          <mxGeometry width="1145" height="150" as="geometry" />
        </mxCell>
        <mxCell id="OHPu5Y8eQpiQ9gSJHc9i-45" value="[user dont have a session]" style="text;html=1;align=center;verticalAlign=middle;resizable=0;points=[];autosize=1;strokeColor=none;fillColor=none;" vertex="1" parent="OHPu5Y8eQpiQ9gSJHc9i-46">
          <mxGeometry x="37.16683549671368" y="59.99857142857138" width="160" height="30" as="geometry" />
        </mxCell>
        <mxCell id="OHPu5Y8eQpiQ9gSJHc9i-42" value="" style="endArrow=none;dashed=1;html=1;rounded=0;exitX=-0.002;exitY=0.335;exitDx=0;exitDy=0;exitPerimeter=0;entryX=1;entryY=0.341;entryDx=0;entryDy=0;entryPerimeter=0;strokeWidth=3;" edge="1" parent="OHPu5Y8eQpiQ9gSJHc9i-46" source="OHPu5Y8eQpiQ9gSJHc9i-25" target="OHPu5Y8eQpiQ9gSJHc9i-25">
          <mxGeometry width="50" height="50" relative="1" as="geometry">
            <mxPoint x="-70.61674008810579" y="110" as="sourcePoint" />
            <mxPoint x="1150.044052863436" y="40" as="targetPoint" />
          </mxGeometry>
        </mxCell>
        <mxCell id="OHPu5Y8eQpiQ9gSJHc9i-47" value="" style="html=1;verticalAlign=bottom;endArrow=open;dashed=1;endSize=8;labelBackgroundColor=none;fontFamily=Verdana;fontSize=12;" edge="1" parent="OHPu5Y8eQpiQ9gSJHc9i-46">
          <mxGeometry relative="1" as="geometry">
            <mxPoint x="350" y="110" as="targetPoint" />
            <mxPoint x="1062" y="110" as="sourcePoint" />
          </mxGeometry>
        </mxCell>
        <mxCell id="OHPu5Y8eQpiQ9gSJHc9i-48" value="return session&amp;nbsp;" style="edgeLabel;html=1;align=center;verticalAlign=middle;resizable=0;points=[];fontSize=12;" vertex="1" connectable="0" parent="OHPu5Y8eQpiQ9gSJHc9i-47">
          <mxGeometry x="0.0033" y="-3" relative="1" as="geometry">
            <mxPoint x="-6" y="-7" as="offset" />
          </mxGeometry>
        </mxCell>
        <mxCell id="OHPu5Y8eQpiQ9gSJHc9i-3" value="update the promte" style="html=1;verticalAlign=bottom;endArrow=block;labelBackgroundColor=none;fontFamily=Verdana;fontSize=12;elbow=vertical;edgeStyle=orthogonalEdgeStyle;curved=1;" edge="1" parent="1">
          <mxGeometry relative="1" as="geometry">
            <mxPoint x="255" y="-246" as="sourcePoint" />
            <mxPoint x="255" y="-210" as="targetPoint" />
            <Array as="points">
              <mxPoint x="321" y="-246" />
              <mxPoint x="321" y="-210" />
            </Array>
          </mxGeometry>
        </mxCell>
      </root>
    </mxGraphModel>
  </diagram>
</mxfile>
